<svg width="44" height="54" viewBox="0 0 44 54" fill="none" xmlns="http://www.w3.org/2000/svg">
<path d="M31.6626 18.5917C31.6462 18.5917 31.6313 18.5968 31.6148 18.5968C32.9081 16.7185 33.6727 14.4495 33.6727 11.9969C33.6727 5.55344 28.4468 0.333313 22.0017 0.333313C15.5532 0.333313 10.3273 5.55344 10.3273 11.9969C10.3273 14.4495 11.0922 16.7185 12.3853 18.5968C12.3704 18.5968 12.3572 18.5917 12.3424 18.5917C5.89259 18.5917 0.666687 23.8156 0.666687 30.2569C0.666687 36.7004 5.89259 41.9205 12.3424 41.9205C13.7826 41.9205 15.1571 41.6514 16.4256 41.1664C16.8778 40.9947 17.3884 41.1036 17.7303 41.4453C18.0723 41.787 18.1813 42.2985 18.0077 42.7491L15.0628 50.4349C14.7837 51.1678 14.8812 51.9898 15.3255 52.635C15.7697 53.2802 16.5031 53.6666 17.2875 53.6666H26.7106C27.495 53.6666 28.2285 53.2804 28.673 52.635C29.1171 51.9898 29.2163 51.1676 28.9355 50.4366L25.9906 42.7474C25.8171 42.2968 25.926 41.7853 26.268 41.4436C26.61 41.1019 27.1204 40.993 27.573 41.1664C28.8431 41.6514 30.2189 41.9205 31.6623 41.9205C38.1074 41.9205 43.3334 36.7004 43.3334 30.2569C43.3336 23.8154 38.1077 18.5917 31.6626 18.5917ZM22.0004 23.7131C21.9873 23.6931 21.969 23.6766 21.9541 23.6571C21.9707 23.6571 21.9856 23.6617 22.0021 23.6617C22.017 23.6617 22.0319 23.6571 22.0467 23.6571C22.0319 23.6766 22.0136 23.6931 22.0004 23.7131Z" fill="black" fill-opacity="0.85"/>
</svg>
