<svg width="48" height="54" viewBox="0 0 48 54" fill="none" xmlns="http://www.w3.org/2000/svg">
<path d="M23.9994 0.333313C23.9994 0.333313 0.888916 12.7603 0.888916 27.2747C0.888916 33.9472 6.32397 41.7851 13.0286 41.7851C14.9839 41.7851 16.8201 41.3161 18.4453 40.4898C18.9048 40.256 19.4599 40.3277 19.8438 40.6716C20.2261 41.0138 20.357 41.5565 20.1742 42.0355L16.9577 50.3994C16.6744 51.139 16.7733 51.9705 17.2243 52.6231C17.6754 53.2757 18.4201 53.6666 19.2165 53.6666H28.7836C29.5802 53.6666 30.3246 53.2759 30.7758 52.6231C31.2269 51.9705 31.3257 51.1388 31.0423 50.3994L27.8259 42.0355C27.643 41.5565 27.7739 41.0138 28.1563 40.6716C28.5403 40.3294 29.0954 40.2558 29.555 40.4898C31.1799 41.3161 33.0164 41.7851 34.9715 41.7851C41.6763 41.7851 47.1111 33.9472 47.1111 27.2747C47.1114 12.7603 23.9994 0.333313 23.9994 0.333313Z" fill="black" fill-opacity="0.85"/>
</svg>
